<?xml version="1.0" encoding="UTF-8"?>
<svg id="_레이어_1" data-name="레이어_1" xmlns="http://www.w3.org/2000/svg" version="1.1" viewBox="0 0 858.72 838.79">
  <!-- Generator: Adobe Illustrator 30.6.0, SVG Export Plug-In . SVG Version: 2.1.4 Build 109)  -->
  <defs>
    <style>
      .st0 {
        fill: #2c1509;
      }

      .st1 {
        fill: #2e160a;
      }

      .st2 {
        fill: #956035;
      }

      .st3 {
        fill: #d29a4f;
      }

      .st4 {
        fill: #cf994d;
      }

      .st5 {
        fill: #f6bfa8;
      }

      .st6 {
        fill: #2c150a;
      }

      .st7 {
        fill: #2c160a;
      }

      .st8 {
        fill: #7c2619;
      }

      .st9 {
        fill: #915c33;
      }

      .st10 {
        fill: #552f1b;
      }

      .st11 {
        fill: #fdfefd;
      }

      .st12 {
        fill: #32140a;
      }

      .st13 {
        fill: #935d33;
      }

      .st14 {
        fill: #955e34;
      }

      .st15 {
        fill: #724326;
      }

      .st16 {
        fill: #fefefd;
      }

      .st17 {
        fill: #f5b9a2;
      }

      .st18 {
        fill: #fefdfd;
      }

      .st19 {
        fill: #935e33;
      }

      .st20 {
        fill: #e47c68;
      }

      .st21 {
        fill: #6c3e22;
      }

      .st22 {
        fill: #966034;
      }

      .st23 {
        fill: #fefefe;
      }

      .st24 {
        fill: #e0d0c4;
      }

      .st25 {
        fill: #724223;
      }

      .st26 {
        fill: #6a3d21;
      }
    </style>
  </defs>
  <g id="_생성형_오브젝트" data-name="생성형_오브젝트">
    <g>
      <path class="st0" d="M335.89,838.55c-24.51-1.2-53-8.36-70.76-25.77-14.04,4.45-28.02,5.71-42.84,5.93-29.47.44-57.98-7.07-82.94-22.58-18.49-11.49-35.08-28.7-43.95-48.65-.66-1.48-3.81-2.3-5.46-2.64-25.94-5.3-49.66-17.5-68.71-35.89-9.81-9.47-17.05-20.68-20.07-33.84-2.35-10.24-1.35-20.65,5.02-28.96,4.5-5.87,11.32-8.51,18.22-10.87l20.09-6.87c31.68-13.06,44.1-40.48,52.47-72.17,5.69-21.55,10-42.82,13.22-65.49-21.96,1.25-45.29-8.83-57.67-27.11-10.68-15.76-10.39-34.9-1.59-51.68,6.65-12.67,16.58-22.76,27.5-32.07,2.09-1.78,3.23-3.22,2.65-6.16-10.16-51.3-2.82-101.26,18.75-148.59,8.75-19.19,19.53-36.16,32.61-52.65,26.9-33.92,64.34-60.94,104.63-77.5-3.78-4.36-7.03-8.27-9.64-13.1-12.75-23.62-.21-53.22,22.73-66.18,12.28-6.93,26.29-10.99,40.61-10.9,20.35.14,47.08,10.35,60.39,26.42,14.13-7.87,23.93-8.51,38.58-1.61,7.84-12.54,19.56-20.5,33.04-25.47,14.04-5.18,28.34-5.62,42.52-.77,14.89,5.09,26.53,16.2,31.48,31.18,4.51,13.63,2.65,27.6-6.27,39.37,29.85,6.3,63.1,20.65,88.05,36.84,27.86,18.07,51.17,41.73,67.92,70.36,7.58,12.96,14.18,25.65,18.05,40.09l16.91,6.52c10.86,4.19,20.78,10.06,29.58,17.68,21.97,19.02,32.45,51.29,16.29,75.75-11.2,16.95-27.68,25.42-47.81,29.55l3.31,15.6,6.44-3.21c24.14-15.85,52.97-25.27,82.04-22.8,19.38,1.64,37.52,8.03,52.77,20,11.25,8.83,19.04,20.33,25.15,33.08,7.04,14.69,9.03,29.78,9.45,45.92.78,30.31-8.65,58.53-26.55,82.7-25.82,34.87-63.65,54.51-107.52,53.51,9.63,29.07,5.15,64.19-9.64,90.69-15.67,28.74-38.89,47.23-69.59,58.62-7.36,9.82-15.36,18.08-24.3,26.73-49.94,48.33-121.31,77.39-191.19,68.34-3.46-.45-5.3,1.03-8.17,2.35-26.97,12.37-56.13,17.77-85.83,16.31Z"/>
      <g>
        <g>
          <path class="st9" d="M306.54,258.15c-15.94,7.78-30.05,16.11-45.41,26.26-4.95-23.2-5.69-46.08-3.65-69.31,2.11-24.08,8.4-47.09,19.48-68.32,7.43-14.23,16.89-25.6,28.41-36.53,11.65-11.04,25.27-18.86,40.42-24.24,43.2-15.34,91.12-3.02,121.4,31.43,12.12,14.1,21.52,29.97,29.23,47.06,5.9,13.07,11.24,25.68,15.39,40.15-50.34,1.46-99.22,11-146.31,28.32-20.36,7.14-39.54,15.13-58.96,25.17Z"/>
          <path class="st19" d="M699.01,281.48c-23.55-19.45-54.61-25.69-85.01-26.12-39.88-.56-78.39,6.86-115.45,21.13-20,7.7-39.09,15.44-58.47,24.56l-60.04,25.93c-36.84,14.05-82.63,23.58-121.41,16.44-12.68-2.34-30.33-10.71-23.94-19.15,3.18-4.21,6.92-7.46,11-10.89,17.12-14.41,35.11-26.73,54.82-37.72,47.15-26.3,98.17-45.47,151.8-53.98,50.1-7.95,101.09-6.66,150.82,2.06l49.03,11.46c14.9,3.48,28.95,8.95,41.5,17.32,11.46,7.64,18.81,17.83,22.3,31.18,4.5,17.23-3.64,35.28-19.56,43.66-5.86,3.08-12.09,4.96-18.83,5.65-.93-6.18,13.36-5.72,23.39-16.85,9.63-10.69,9.01-25.62-1.95-34.66Z"/>
          <path class="st26" d="M205.7,310.12c-28.86,10.56-57.76,24.31-83.64,40.81-1.46-7.47-1.54-13.7-1.65-20.89-.59-38.65,6.97-76.22,22.17-111.71,9.92-23.16,22.5-44.56,39.55-63.09,15.51-16.86,33.18-30.85,53.8-40.75l22.62-9.49,54.18-17.26c-37.96,27.51-57.54,63.57-65.29,109.61-4.62,27.49-4.69,54.87.55,82.33.76,4.01,2.68,7.83,2.49,11.86-.21,4.29-5.41,7.17-9.29,7.87-12.48,2.23-23.4,6.29-35.49,10.71Z"/>
          <path class="st13" d="M605.62,209.83c-27.53-3.63-53.77-6.16-81.26-5.65-5.55-19.52-13.61-37.5-23.12-55.38-11.32-21.28-25.73-40.09-44.42-55.27-11.47-9.18-23.98-15.43-38.1-18.33,1.68-1.36,3.14-.05,4.64.14,20.44,2.57,39.85,7.06,59.17,14.27,33.26,11.27,62.78,30.32,86.35,56.28,16.39,18.6,28.99,39.43,36.73,63.94Z"/>
          <path class="st13" d="M91.02,424.43c-8.6,4.28-15.25,17.58-9.96,27.31,7.03,12.2,17.93,15.86,30.78,19.4-15.23,1.97-28.53-3.57-38.39-14.66-7.54-8.49-10.71-20.25-6.9-31.05,3.06-8.67,7.83-16.43,14.18-22.89l13.41-13.62c20.25-17.69,42.93-31.45,66.97-43.61,20.15-10.2,39.82-19.49,61.4-27.08-2.86,3.06-4.36,6.16-4.94,10.13-.14,3.94-2.08,7.01-5.46,9.01l-19.12,17.31-24,21.08-18.93,14.62c-12.27,9.48-25.21,17.22-39.12,24.13l-19.93,9.91Z"/>
          <path class="st14" d="M282.21,72.2l20.65-7.38c9.36-3.35,19.45-4.58,28.93-1.37l17.51,5.93c-14.21,1.38-27.12,3.99-40.31,8.1l-20.07,6.25c-16.84,5.24-38.22,4.73-44.77-12.84-5.47-14.66.29-31,13.32-39.83,8.83-5.98,18.77-9.79,29.67-10.01,29.09-.59,57.66,13.52,67.78,42.34-9.48-6.83-19.84-12.24-30.89-16.9l-14.4-6.08c-16.57-6.99-37.24-8.39-46.54,7.95-3.68,6.47-3.18,14.46,1.89,20.05,4.23,4.67,11.01,6.01,17.22,3.79Z"/>
          <path class="st22" d="M645.52,217.13l-21.53-4.41c-7.87-24.29-20.52-46.08-37.64-65.29l-19.61-19.77c-11.97-10.8-25.01-19.77-38.83-28.04l-9.96-5.04c.25-.17.39-.35.48-.66l24.68,11.61c24.95,11.73,58.97,38.23,74.73,61.38,11.56,15.21,20.73,31.47,27.68,50.23Z"/>
          <path class="st2" d="M438.76,56.58c6.8,1.37,12.88,2.94,19.42,2,5.23-.75,9.62-2.97,12.01-6.87,2.68-4.38,3.57-9.87,1.35-14.4-2.4-4.91-7.07-7.43-12.27-8.2-18.93-2.79-38.97,6.51-54.11,18.22l-2.97-9.1c16.14-20.09,48.16-31.31,67.84-14.13,8.29,7.24,12.64,18.26,8.65,28.75-2.93,7.7-10.72,12.42-18.61,13.35-5.39.63-10.33.37-15.67-.42-12.44-1.83-24.52-3.14-36.99-3.27-.21-2.09-.11-3.28.3-5.1,10.17-1.61,20.46-2.96,31.05-.84Z"/>
          <path class="st15" d="M98.98,365.98c-2.08-9.11-2.57-18.25-2.68-27.87-.19-16.5.33-32.37,3.11-48.68,5.78-33.93,19.83-65.47,37.84-94.61l23.4-30.02c-15.05,21.8-28.07,43.81-37.26,68.58-14.17,41.29-19.26,82.13-14.02,125.24l-10.39,7.36Z"/>
          <path class="st13" d="M393.09,66.57l-27.51.18-3.45-16.15c-.95-4.45,1.54-8.53,6.03-10.14,7.71-2.77,17.18-.26,21.93,6.84,3.68,5.5,4.19,12.56,3,19.28Z"/>
        </g>
        <g>
          <g>
            <path class="st23" d="M653.57,328.67c6.52,16.36,11.85,33.14,15.81,50.74-18.79,19.92-30.6,44.49-35.08,70.96l-.78,1.57c-19.38,6.07-21.58,31.64-1.06,37.54l.73,1.51c1.97,14.46,6.04,28.29,11.49,42.5-4.09,10.25-9.35,19.51-15.46,28.83-9.87.9-18.5,3.71-27.52,7.37-14.71,5.97-27.21,15.76-35.2,29.54-9.35,16.13-8.69,35.53,1.34,50.89-15.52,9.15-19.8,25.44-10.76,40.55,5.95,11.19,16.89,17.42,28.59,20.27,1.78.38,2.29,1.18,1.52,2.38-16.31,25.95-45.88,49.12-77.12,54.16-15.78,2.54-31.08-2.5-33.33-19.34-30.47,23.07-71.53,35.96-109.89,32.02-8.38-.86-18.75-4.37-24.38-10.8-6.39-7.28-6.6-15.29-5.71-24.2l-23.9,9.82-50.86,14.1c-29.63,4.88-73.41,3.74-93.96-21.46-7.06-8.65-7.91-17.51-3.71-27.31l-1.41-.02c-35.78,10.01-75.82-2.98-106.95-22.52-5.64-3.54-21.43-24.4-20.01-30.59.24-1.03.5-1.66,1.54-2.11,58.92-13.8,102.56-65.35,111.81-125.6l14.81-75.8c3.17-18.86,11.95-32.03,23.42-46.64,5.98-7.61,16.25-18.5,24.2-23.75,5.26-3.47,18.95-12.04,24.4-13.09,43.25,10.71,86.04-4.18,126.49-19.41,32.19-12.99,63.91-26.04,95.15-39.15,60.74-22.25,134.79-39.39,191.63,4.95,1.83.36,3.21,1.05,4.15,2.08Z"/>
            <path class="st5" d="M343.91,511.99c-17.39,9.24-38.53,9.29-55.54-.22-9.43-5.27-16.17-14.32-16.37-25.1-.4-21.49,31.69-39.15,59.18-29.54,8.16,2.85,14.66,8.42,20.53,14.43,5.92,6.06,7.81,13.98,6.19,22.45-1.4,7.34-6.09,13.78-13.99,17.97Z"/>
            <path class="st1" d="M236.79,612.41l2.66,2.39c13.75,31.53,44.03,76.84,83.3,72.33,16.32-1.87,25.31-16.96,25.21-32.32-1.41-8.66-3.83-16.97-8.7-24.5l-19.99-30.86c-6.84-10.56-12.85-20.99-16.53-32.98-1.55-5.04-.59-9.09,2.25-9.24,1.31-.07,2.08.66,2.78,2.06,8.46,16.85,19.15,32.04,31.29,46.46s22.37,33.07,23.62,51.16c1.53,22.19-12.64,41.24-34.44,45.63-30.91,6.22-57.9-14.21-76.07-38.26-12.39-16.41-20.76-34.81-24.32-55.25-.3-1.74.18-3.69,1.55-4.21s3.86-.4,4.59,1.25l2.8,6.35Z"/>
            <path class="st24" d="M347.97,654.8c2.68,16.44-8.3,31.48-25.01,33.77-17.28,2.37-34.1-5.97-46.76-17.74-18.85-17.53-29.18-35.26-39.4-58.42l2.9-5.03c17.48,28.22,43.03,51.82,74.24,62.77,9.54,3.35,19.6,2.64,27.89-2.84,4.41-2.92,6.19-7.82,6.15-12.51Z"/>
            <g>
              <path class="st6" d="M577.7,456.38c-8.44-2.52-14.35-8.22-18.92-14.93-13.07-19.17-9.57-47.26,7.08-61.74,12.99-11.3,31.11-10.74,43.47,1.1,21.45,20.54,19.91,57.73-2.09,72.13-8.47,5.54-19.7,6.39-29.54,3.45Z"/>
              <circle class="st16" cx="587.82" cy="395.21" r="10.63"/>
            </g>
            <g>
              <path class="st12" d="M484.62,520.22c-14.2-2.48-25.47-12.43-31.57-24.64-11.5-23.04-6.38-42.65,1.37-37.13s17.53,8.06,26.74,5.27c11.04-3.34,15.2-14.28,17.59-14.67,3.08-.5,4.6,7.36,12.37,10.09s15.4.59,21.66-4.2c1.82-1.39,4.39.62,5.08,1.92.99,1.87.18,3.86-1.13,5.66l-6.59,9.08c.1,12.98-2.21,26.54-10.77,36.98-8.07,9.84-21.78,13.91-34.75,11.64Z"/>
              <path class="st8" d="M514.33,499.93c-.62.1-1.23,0-1.63-.52-9.19-11.84-21.61-16.29-36.51-13.1-5.27,1.12-9.54,3.26-13.95,5.51-3.89-7.21-5.99-14.96-4.6-23.45,14.3,7.29,28.85,4,39.68-7.39,1.62-1.91,3.61-1.27,5.35.1,5.49,4.3,11.6,7.15,19,6.68.14,10.9-1.68,23.91-7.35,32.17Z"/>
              <path class="st20" d="M514.33,499.93c-7.79,14.5-28.72,15.74-41.28,6.11-4.96-3.8-7.91-8.87-10.8-14.22.27-1.04.81-2.09,2.07-2.75,15.87-8.33,35.92-6.85,47.83,6.92,1.14,1.32,1.98,2.54,2.19,3.94Z"/>
            </g>
            <g>
              <circle class="st7" cx="383.32" cy="427.77" r="45.82"/>
              <circle class="st18" cx="390.19" cy="408.76" r="12.44"/>
            </g>
          </g>
          <path class="st24" d="M653.57,328.67c-2.19.42-4.14-.13-5.99-1.57-10.96-8.48-22.74-14.86-36.05-19.22-37.27-12.22-75.07-8.32-112.52,1.82l-40.71,13.3-61.13,25.4c-21.8,9.06-42.94,17.73-65.42,24.85-32.48,10.29-61.44,16.5-95.45,8.34-11.49,5.48-22.54,11.05-32.06,19.21l-13.89,15.3c-16.52,18.2-21.87,32.05-26.58,56.44l-11.44,59.26c-2.97,15.36-6.22,30.28-11.92,45-13.4,34.6-48.2,72.09-83.09,83.39l-19.99,6.48c1,9.22,12.53,25.1,19.47,29.91,13.35,9.25,28.07,14.93,43.54,19.77,14.92,4.67,29.85,7.07,45.48,5.94l16.87-3.43c1.08-.22,2.37-.04,2.77.52,1.8,2.58-5.52,8.95-.64,19.91,1.96,4.4,4.47,8.26,8.23,11.48,13.05,11.18,29.02,17.36,46.37,18.34,15.78.89,31.23,1.76,46.43-2.49l46.53-13.01,23.09-9.63c.98-.41,2.18-.34,2.56.16.31.41.63,1.78.5,2.34-3.13,13.08,3.77,25.2,16.34,29.21,4.66,1.49,9.13,2.78,14.18,3.25,20.64,1.92,40.94-1.02,60.49-7.94,16.71-5.91,36.38-14.09,49.08-26.58-.65,10.64,4.64,18.38,14.21,20.78,7.24,1.81,14.97,1.78,22.38-.32,9.97-2.83,19.61-6.18,28.57-11.52,12.28-7.32,22.83-16.65,32.49-27.04l9.16-12.82c.7-.99.97-1.81.27-2.56,22.97,5.6,36.12-6.73,43.75-28.8,11.85,6.66,24.99,5.08,37.2-.37-14.94,2.4-28.75-5.56-32.36-20.35-2.27-9.3-1.96-20.1,2.21-28.46,1.09-1.59,2.05-1.64,2.84.16-1.99,14.13,2.11,25.47,18.14,27.81,26.4,3.86,47.97-29.19,52.09-51.92l1.48-.88c.76.71.53,1.69.49,2.99-1.07,34.53-17.06,65.09-46.59,82.86-9.88,5.94-20.11,9.55-30.74,13.71-4.33,1.69-8.78,3.58-11.38,7.54-5.25,7.99-11.14,14.71-17.95,21.44-14.78,14.62-31,26.63-49.23,36.62l-25.76,12.26c-28.23,11.71-58.23,17.4-89.4,15.5,6.21-5.08,12.03-9.94,16.77-16.17l8.4-11.03-33.64,20.05c-35.55,19.01-79.1,29.64-118.7,19.71-15.18-4.18-26.63-10.67-31.22-26.43-13.87,4.04-26.84,7.55-40.87,9.41-26.12,3.46-51.92.22-75.89-10.39-18.82-8.33-34.49-20.96-45.38-38.38-1.33-2.12-3.22-3.71-3.72-6.18l19.87-13.42-21.51.24c-24.61-.88-47.8-8.95-67.45-23.55-10.33-7.67-18.69-16.75-23.89-28.56-1.47-3.35-2.42-6.88-2.42-10.53,0-4.43,2.4-7.56,6.46-8.81l22.32-6.87c16.68-5.14,31.36-15.06,43.42-27.81,13.53-14.3,22.83-31.36,28.4-50.21l11.06-48.64,10.32-58.12c3.45-19.4,15.08-59.03,27.99-71.13,17.31-16.22,36.8-29.6,58.11-40.09,2.42-1.19,5.44.55,7.54,1.23,14.2,4.54,28.43,6.36,43.41,6.56,32.9.46,73.29-8.21,103.64-20.61l57.92-23.67,66.97-28.32c17.7-6.76,35.16-12.02,53.74-15.45,26.39-4.87,54.76,2.86,72.84,22.95,8.17,9.66,14.08,20.44,18.63,31.85Z"/>
          <g>
            <path class="st23" d="M711.01,608.14c.03,2.34-.75,4.43-1.34,6.84-4.05,16.53-20.19,40.02-36.6,45.73-10.25,3.56-21.97,2.58-30.07-5.05-8.8-8.29-4.07-21.89-5.3-22.65-.24-.15-.68-.1-1.24-.04,10.02-20.12,32.12-31.09,54.89-28.05-.73-2.62-2.75-5.18-1.28-7.23,2.55-3.55,6.62-6.11,10.69-7.45,3.92-1.3,7.54,1.25,8.57,4.92,1.24,4.43,1.63,8.74,1.68,12.99Z"/>
            <path class="st25" d="M596.72,699.09c-13.95,3.15-26.39-11.06-27.3-23.87-.22-3.07.39-7.01,2.94-8.83l19.58-13.98c3.36-2.4,5-5.92,7.46-9.43l42.92-65.27,30.1,17.91c-14.6,2.05-27.55,7.95-38.25,17.42-9.15,8.27-14.92,18.75-16.2,31.05l.16,18.81c-2.9,10.29-7.02,19.68-12.36,28.79-2.01,3.43-4.69,6.41-9.06,7.4Z"/>
            <path class="st21" d="M754.95,357.73c-34.82,8.61-63.96,32.53-79.91,64.87-16.03,32.5-19.43,75.18,1.89,105.21,4.99,7.02,11.47,11.98,18.02,16.86-17.95-.02-36.2-15.4-41.7-31.09-2.36-6.74-4.37-13.47-5.32-20.68-2.32-17.74-.37-34.96,4.58-52.15,9.6-33.33,26.63-54.06,56.94-70.49,12.61-6.83,25.52-10.67,39.78-12l5.71-.53Z"/>
            <path class="st4" d="M678.77,584.42c-11.18-3.77-20.93-9.62-29.81-16.91-1.46-.83-2.14-2.61-1.25-4.19l13.6-24.25c2.38.9,3.73,2.54,5.36,4.17,8.4,6.29,17.05,11.7,26.57,16.73l-14.46,24.45Z"/>
            <path class="st11" d="M603.59,606.21l-22.3,35.27c-9.01-13.28-6.87-29.48,3.16-40.98,5.74-6.58,12.22-11.81,20.38-15.3l18.87-5.41c-8.21,8.12-13.99,16.75-20.11,26.42Z"/>
            <path class="st17" d="M634.3,450.37c-2.26,13.4-2.36,27.09-1.11,40.62-7.14-.16-15.36-8.67-16.62-16.36-1.77-10.83,7.45-22.54,17.73-24.26Z"/>
            <g>
              <path class="st3" d="M694.96,544.67c-13.94-5.4-23.6-20.37-28.73-34.09-12.06-32.25-4.04-71.74,14.06-100.3,16.37-25.83,43.85-48.06,74.66-52.55,16.43-1.54,33.04-1.28,48.29,6.12,15.72,7.63,27.8,21.18,34.1,37.82,10.53,27.78,6.73,58.68-6.01,85.25-12.84,26.78-33.61,48.19-60.9,59.98-24.59,10.62-52.59,11.37-75.49-2.23Z"/>
              <g>
                <path class="st0" d="M786.31,524.12c-21.86,15.99-49.3,23.8-75.15,14.66-30.4-10.75-41.09-42.08-36.9-72.62,4.29-31.31,17.99-55.78,41.65-76.27,11.85-10.26,25-16.55,40.09-20.44,20.65-5.32,42.25-1.2,58.62,12.71,22.01,18.7,23.62,50.92,16.02,78.1-7.15,25.58-22.91,48.18-44.33,63.85Z"/>
                <path class="st23" d="M812.89,448.3c-7.59,39.25-39.57,76.4-80.87,80.1-11.38,1.02-23.04-2.56-30.95-10.81-10.45-10.92-13.52-25.73-13.01-40.32.47-13.45,2.99-24.99,8.21-37.23,8.27-19.42,21.7-35.51,39.45-47.19,6.7-4.41,13.28-7.72,21.32-9.41,11.73-2.46,24.49-2.39,35.22,3.68,9.24,5.22,14.84,14.74,18.39,24.38,1.47,3.99,2.71,7.54,2.87,11.84.32,8.34.98,16.61-.63,24.97Z"/>
                <path class="st10" d="M791.87,509.72c-10.29,9.77-22.72,16.96-36.31,18.88,15.47-6.97,27.14-15.83,37.5-28.21,18.79-22.47,30.77-50.32,26.33-80.1-.22-1.49,4.03-1.79,4.07-.42l.73,26.06c.58,20.66-16.65,48.9-32.33,63.78Z"/>
              </g>
            </g>
          </g>
        </g>
      </g>
    </g>
  </g>
</svg>